<svg xmlns="http://www.w3.org/2000/svg" width="24" height="24" viewBox="0 0 24 24" fill="#B2B2B7"><path fill="#B2B2B7" d="m17.704 20.751-2.363-2.282a11.1 11.1 0 0 1-3.353.512q-3.12 0-5.704-1.676a11.8 11.8 0 0 1-4.051-4.424 1.78 1.78 0 0 1-.175-1.339 1.9 1.9 0 0 1 .175-.43q.512-.908 1.094-1.77a8 8 0 0 1 1.35-1.536L2.746 5.85a.87.87 0 0 1-.256-.64q0-.385.28-.664a.88.88 0 0 1 .651-.256q.396 0 .652.256l14.936 14.901q.256.255.268.64a.87.87 0 0 1-.268.664.88.88 0 0 1-.652.256.88.88 0 0 1-.652-.256Zm-5.716-4.563a5 5 0 0 0 .49-.024q.233-.023.465-.093l-5.03-5.029q-.07.232-.092.466a5 5 0 0 0-.024.489q0 1.746 1.223 2.968 1.222 1.223 2.968 1.223m0-11.176q3.12 0 5.716 1.688a11.9 11.9 0 0 1 4.063 4.435q.117.186.175.408.058.22.058.454 0 .232-.047.454a1.3 1.3 0 0 1-.162.407 13 13 0 0 1-.99 1.63q-.547.768-1.222 1.444a.97.97 0 0 1-.769.302 1.14 1.14 0 0 1-.768-.35l-1.863-1.862a.75.75 0 0 1-.21-.384.9.9 0 0 1 .024-.454 3.7 3.7 0 0 0 .186-1.188q0-1.746-1.222-2.968c-1.222-1.222-1.805-1.222-2.969-1.222a3.7 3.7 0 0 0-1.187.186.95.95 0 0 1-.466.023.76.76 0 0 1-.395-.21l-.769-.768q-.443-.442-.29-1.024a.98.98 0 0 1 .733-.745q.582-.117 1.175-.186.594-.07 1.2-.07Zm1.84 5.262q.256.303.43.663.175.36.222.757.023.187-.14.256-.163.07-.303-.07l-1.909-1.909q-.14-.14-.058-.303a.28.28 0 0 1 .268-.163q.442.047.815.245.372.197.675.524"></path></svg>