<svg xmlns="http://www.w3.org/2000/svg" width="16" height="16" viewBox="0 0 16 16" fill="#75767F"><path fill="#75767F" fill-rule="evenodd" d="m3.07 10.36-.06.11c-.07.16-.13.32-.16.48-.01.04-.02.08-.02.12-.02.1-.02.2-.02.3s.02.19.03.29c.02.07.03.14.06.2.03.11.08.22.13.33a2.3 2.3 0 0 0 .33.44 2.3 2.3 0 0 0 .44.33c.11.05.22.1.33.13.06.03.13.04.2.06.1.01.19.03.29.03s.2 0 .3-.02c.04 0 .08-.01.12-.02.16-.03.32-.09.48-.16l.11-.06a.3.3 0 0 1 .14-.03c.06 0 .13.01.19.04.07.02.12.06.17.1.03.04.06.07.07.11l.05.12c.06.15.13.3.22.43.03.03.05.06.08.09.06.08.13.15.2.22.07.06.14.11.22.17.06.03.12.07.18.1.1.05.21.09.32.12.07.02.15.04.22.05a1.6 1.6 0 0 0 .61 0c.08-.01.15-.03.22-.05.11-.03.22-.07.32-.12.06-.03.12-.07.18-.1.08-.06.15-.11.22-.17.08-.07.14-.14.2-.22.03-.03.05-.06.08-.1.09-.13.16-.27.22-.42l.05-.12c.01-.04.04-.07.07-.11.05-.04.1-.08.17-.1.06-.03.13-.04.19-.04.05 0 .1.01.14.03l.11.06c.16.07.32.13.49.16.03.01.07.02.11.02.1.02.2.02.3.02s.19-.02.29-.03c.07-.02.14-.03.2-.06.11-.03.22-.08.33-.13a2.3 2.3 0 0 0 .44-.33 2.3 2.3 0 0 0 .33-.44c.05-.11.1-.22.13-.33.03-.06.04-.13.06-.2.01-.1.03-.19.03-.29s0-.2-.02-.3c0-.04-.01-.08-.02-.12-.03-.16-.09-.32-.16-.48l-.06-.11a.3.3 0 0 1-.03-.14c0-.06.01-.13.04-.19.02-.07.06-.12.1-.17.04-.03.07-.06.11-.07l.12-.05c.15-.06.29-.13.42-.22.04-.02.07-.05.1-.08.08-.06.15-.13.22-.2.06-.07.11-.14.17-.22.03-.06.07-.12.1-.18.05-.1.09-.21.12-.32.02-.07.04-.14.05-.22a1.5 1.5 0 0 0 0-.61c-.01-.08-.03-.15-.05-.22-.03-.11-.07-.22-.12-.32-.03-.06-.07-.12-.1-.18-.06-.08-.11-.15-.17-.22-.07-.07-.14-.14-.22-.2-.03-.03-.06-.05-.1-.08-.13-.09-.27-.16-.42-.22l-.12-.05c-.04-.01-.07-.04-.11-.07-.04-.05-.08-.1-.1-.17a.4.4 0 0 1-.04-.19c0-.05.01-.1.03-.14l.06-.11c.07-.16.13-.32.16-.48.01-.04.02-.08.02-.12.02-.1.02-.2.02-.3s-.02-.19-.03-.29c-.02-.07-.03-.14-.06-.2-.03-.11-.08-.22-.13-.33a2.3 2.3 0 0 0-.33-.44 2.3 2.3 0 0 0-.44-.33c-.11-.05-.22-.1-.33-.13-.06-.03-.13-.04-.2-.06-.1-.01-.19-.03-.29-.03s-.2 0-.3.02c-.04 0-.08.01-.12.02-.16.03-.32.09-.48.16l-.11.06a.3.3 0 0 1-.14.03c-.06 0-.13-.01-.19-.04-.07-.02-.12-.06-.17-.1-.03-.04-.06-.07-.07-.11l-.05-.12c-.06-.15-.13-.29-.22-.42a.4.4 0 0 0-.08-.1c-.06-.08-.12-.15-.2-.22-.07-.06-.14-.11-.22-.17-.06-.03-.12-.07-.18-.1-.1-.05-.21-.09-.32-.12-.07-.02-.14-.04-.22-.05a1.5 1.5 0 0 0-.61 0c-.08.01-.15.03-.22.05-.11.03-.22.07-.32.12-.06.03-.12.07-.18.1-.08.06-.15.11-.22.17-.07.07-.14.14-.2.22-.03.03-.05.06-.08.1-.09.13-.16.27-.22.42l-.05.12c-.01.04-.04.07-.07.11-.05.04-.1.08-.17.1-.06.03-.13.04-.19.04a.3.3 0 0 1-.14-.03l-.11-.06a2.3 2.3 0 0 0-.6-.18c-.1-.02-.2-.02-.3-.02s-.19.02-.29.03c-.07.02-.14.03-.2.06-.11.03-.22.08-.33.13a2.3 2.3 0 0 0-.44.33 2.3 2.3 0 0 0-.33.44c-.05.11-.1.22-.13.33-.03.06-.04.13-.06.2-.01.1-.03.19-.03.29s0 .2.02.3a2.3 2.3 0 0 0 .18.6l.06.11c.02.04.03.09.03.14 0 .06-.01.13-.04.19-.02.07-.06.12-.1.17-.04.03-.07.06-.11.07l-.12.05c-.15.06-.29.13-.42.22-.04.02-.07.05-.1.08-.08.06-.15.13-.22.2-.06.07-.11.14-.17.22-.03.06-.07.12-.1.18-.05.1-.09.21-.12.32-.02.07-.04.14-.05.22a1.6 1.6 0 0 0 0 .61c.01.08.03.15.05.22.03.11.07.22.12.32.03.06.07.12.1.18.06.08.11.15.17.22.07.07.14.14.22.2.03.03.06.05.1.08.13.09.27.16.42.22l.12.05c.04.01.07.04.11.07.04.05.08.1.1.17.03.06.04.13.04.19 0 .05-.01.1-.03.14m1.14.71.05-.12c.05-.08.08-.17.11-.26.04-.15.07-.31.07-.47 0-.06-.01-.12-.01-.18-.02-.18-.06-.35-.14-.52-.06-.17-.15-.32-.26-.45-.03-.05-.07-.09-.11-.13q-.165-.18-.39-.3c-.07-.04-.14-.07-.21-.1l-.12-.05a.5.5 0 0 1-.21-.13 1 1 0 0 1-.09-.16.45.45 0 0 1-.04-.2c0-.08.01-.15.04-.21.01-.03.02-.06.04-.09.06-.06.18-.17.26-.2l.12-.05c.07-.03.15-.06.21-.1q.225-.12.39-.3c.04-.04.08-.08.11-.13.11-.13.2-.28.26-.45.08-.17.12-.34.14-.52 0-.06.01-.12.01-.18 0-.16-.03-.32-.07-.47-.03-.09-.06-.18-.11-.26l-.05-.12a.5.5 0 0 1-.07-.26c.01-.03.01-.05.01-.08l.03-.09a.8.8 0 0 1 .12-.19.8.8 0 0 1 .19-.12l.09-.03c.03 0 .05 0 .08-.01.09 0 .17.02.26.07l.12.05c.08.05.17.08.26.11.15.04.31.07.47.07.06 0 .12-.01.18-.01.18-.02.35-.06.52-.14.17-.06.32-.15.45-.26.05-.03.09-.07.13-.11.12-.11.22-.24.3-.38.04-.07.07-.15.1-.22l.05-.12a.5.5 0 0 1 .13-.21c.03-.02.13-.08.16-.09.06-.03.13-.04.21-.04.07 0 .14.01.2.04.04.01.06.02.09.04.06.06.17.18.2.26l.05.12c.03.07.06.15.1.21q.12.225.3.39c.04.04.08.08.13.11.13.11.28.2.45.26.17.08.34.12.52.14.06 0 .12.01.18.01.16 0 .32-.03.47-.07.09-.03.18-.06.26-.11l.12-.05c.09-.05.18-.07.26-.07.03.01.05.01.08.01l.09.03c.07.03.13.07.19.12.05.06.09.12.12.19l.03.09c0 .03 0 .05.01.08 0 .09-.02.17-.07.26l-.05.12c-.05.08-.08.17-.11.26-.04.15-.07.31-.07.47 0 .06.01.12.01.18.02.18.06.35.14.52a1.6 1.6 0 0 0 .37.58q.165.18.39.3c.07.04.14.07.21.1l.12.05a.5.5 0 0 1 .21.13c.02.03.08.13.09.16.03.06.04.13.04.21 0 .07-.01.14-.04.2-.01.03-.02.06-.04.09-.06.06-.17.17-.26.2l-.12.05c-.07.03-.15.06-.21.1q-.225.12-.39.3c-.04.04-.08.08-.11.13-.11.13-.2.28-.26.45-.08.17-.12.34-.14.52 0 .06-.01.12-.01.18 0 .16.03.32.07.47.03.09.06.18.11.26l.05.12c.05.09.07.18.07.26-.01.03-.01.05-.01.08l-.03.09a.8.8 0 0 1-.12.19.8.8 0 0 1-.19.12l-.09.03c-.03 0-.05 0-.08.01-.09 0-.17-.02-.26-.07l-.12-.05c-.08-.05-.17-.08-.26-.11-.15-.04-.31-.07-.47-.07-.06 0-.12.01-.18.01-.18.02-.35.07-.52.14-.17.06-.32.15-.45.26-.05.03-.09.07-.13.11q-.18.165-.3.39c-.04.07-.07.14-.1.21l-.05.12a.5.5 0 0 1-.13.21c-.03.02-.12.08-.16.09-.06.03-.13.04-.2.04-.08 0-.15-.01-.21-.04a.4.4 0 0 1-.09-.04c-.06-.06-.17-.18-.2-.26l-.05-.12c-.03-.07-.06-.15-.1-.21q-.12-.225-.3-.39c-.04-.04-.08-.08-.12-.11-.14-.11-.29-.2-.46-.26-.17-.08-.34-.12-.52-.14-.06 0-.12-.01-.18-.01-.16 0-.32.03-.47.07-.09.03-.18.06-.26.11l-.12.05c-.09.05-.17.07-.26.07-.03-.01-.05-.01-.08-.01l-.09-.03a.8.8 0 0 1-.19-.12.8.8 0 0 1-.12-.19l-.03-.09c0-.03 0-.05-.01-.08 0-.09.02-.17.07-.26M8 6c-1.11 0-2 .89-2 2a2 2 0 1 0 2-2m0 1.33c-.37 0-.67.3-.67.67A.666.666 0 1 0 8 7.33"></path></svg>